<svg id="Layer_1" data-name="Layer 1" xmlns="http://www.w3.org/2000/svg" viewBox="0 0 174.51 189.2"><defs><style>.cls-1{opacity:0.51;}.cls-2,.cls-3,.cls-5,.cls-6,.cls-7,.cls-8{fill:none;stroke-linecap:round;stroke-miterlimit:10;}.cls-2,.cls-3{stroke:#1c75bc;}.cls-2,.cls-5,.cls-7{stroke-width:7px;}.cls-3,.cls-6,.cls-8{stroke-width:7.86px;}.cls-4{opacity:0.35;}.cls-5,.cls-6{stroke:#ed1c24;}.cls-7,.cls-8{stroke:#010101;}</style></defs><g id="ELD" class="cls-1"><polyline class="cls-2" points="79.98 18.5 27.59 13.68 12.94 173.01 65.33 177.83"/><polyline class="cls-3" points="89.89 45.21 55.11 42.01 44.67 155.59 79.44 158.78"/><polyline class="cls-2" points="118.31 21.25 170.71 26.07 156.06 185.4 103.66 180.58"/><polyline class="cls-2" points="107.23 44.75 102.67 94.38 136.6 97.5"/><path class="cls-2" d="M306.87,485.66,311.43,436l15,1.33a21.8,21.8,0,0,1,7.36,2.79c4.45,2.42,10.27,9.22,9.32,23-1.24,18-10.6,23.09-17.61,24.08C323.74,487.47,306.87,485.66,306.87,485.66Z" transform="translate(-210.24 -325.4)"/><line class="cls-2" x1="50.42" y1="96.84" x2="77.38" y2="99.32"/></g><g id="ELD-2" data-name="ELD" class="cls-4"><polyline class="cls-5" points="70.85 8.62 18.45 3.81 3.81 163.13 56.2 167.95"/><polyline class="cls-6" points="80.75 35.33 45.98 32.14 35.53 145.71 70.31 148.91"/><polyline class="cls-5" points="109.18 11.37 161.57 16.19 146.92 175.52 94.53 170.7"/><polyline class="cls-5" points="98.1 34.87 93.53 84.5 127.47 87.63"/><path class="cls-5" d="M297.74,475.78l4.56-49.64,15,1.33a21.87,21.87,0,0,1,7.37,2.79c4.44,2.42,10.27,9.23,9.32,23-1.25,18-10.6,23.1-17.61,24.08C314.6,477.59,297.74,475.78,297.74,475.78Z" transform="translate(-210.24 -325.4)"/><line class="cls-5" x1="41.28" y1="86.96" x2="68.25" y2="89.44"/></g><g id="ELD-3" data-name="ELD"><polyline class="cls-7" points="75.37 14.06 22.98 9.24 8.33 168.57 60.72 173.39"/><polyline class="cls-8" points="85.27 40.77 50.5 37.57 40.05 151.15 74.83 154.34"/><polyline class="cls-7" points="113.7 16.81 166.09 21.63 151.44 180.96 99.05 176.14"/><polyline class="cls-7" points="102.62 40.3 98.06 89.94 131.99 93.06"/><path class="cls-7" d="M302.26,481.22l4.56-49.64,15,1.33a21.89,21.89,0,0,1,7.36,2.79c4.44,2.42,10.27,9.22,9.32,23-1.24,18-10.6,23.09-17.61,24.08C319.12,483,302.26,481.22,302.26,481.22Z" transform="translate(-210.24 -325.4)"/><line class="cls-7" x1="45.8" y1="92.4" x2="72.77" y2="94.88"/></g></svg>